<?xml version="1.0" standalone="no"?>
<!DOCTYPE svg PUBLIC "-//W3C//DTD SVG 20010904//EN"
 "http://www.w3.org/TR/2001/REC-SVG-20010904/DTD/svg10.dtd">
<svg version="1.0" xmlns="http://www.w3.org/2000/svg"
 width="564.000000pt" height="564.000000pt" viewBox="0 0 564.000000 564.000000"
 preserveAspectRatio="xMidYMid meet">
<metadata>
Created by potrace 1.14, written by Peter Selinger 2001-2017
</metadata>
<g transform="translate(0.000000,564.000000) scale(0.100000,-0.100000)"
fill="#000000" stroke="none">
<path d="M3139 4016 c-2 -2 -58 -6 -124 -10 -227 -12 -405 -62 -471 -133 -19
-21 -24 -37 -24 -82 0 -63 -16 -131 -30 -131 -6 0 -10 -7 -10 -15 0 -9 -7 -15
-16 -13 -10 2 -19 -3 -21 -9 -3 -7 3 -13 11 -13 20 0 37 -41 41 -100 2 -25 4
-51 4 -57 1 -7 15 -25 31 -40 17 -14 30 -30 30 -34 0 -10 -129 -49 -163 -49
-44 0 -205 -47 -236 -69 -16 -12 -36 -21 -44 -21 -32 0 -93 -78 -105 -135 -7
-34 -9 -37 -23 -23 -45 45 -168 98 -289 123 -172 36 -495 48 -665 25 -176 -24
-346 -76 -452 -138 -103 -60 -140 -112 -133 -185 2 -23 4 -75 4 -116 1 -81 3
-78 -69 -84 -25 -2 -31 -7 -33 -32 -3 -19 2 -33 13 -41 9 -7 18 -20 19 -29 4
-30 143 -161 198 -188 229 -109 640 -137 981 -68 50 11 93 18 95 17 1 -2 8
-27 14 -57 10 -51 4 -138 -9 -125 -3 3 -12 1 -20 -5 -7 -6 -13 -8 -13 -5 0 16
-42 -17 -50 -40 -18 -46 22 -110 114 -187 105 -87 144 -110 240 -141 224 -73
540 -89 818 -41 177 31 364 111 445 191 46 46 52 57 58 107 5 35 2 88 -8 144
-14 83 -14 90 4 130 23 50 25 127 4 176 -8 19 -35 53 -61 75 l-47 40 56 26
c51 24 117 84 117 105 0 5 -10 7 -22 3 -32 -8 -103 -55 -90 -60 20 -6 1 -29
-38 -47 -39 -18 -40 -17 -106 11 l-67 28 34 7 c55 12 84 68 63 123 -12 30
-115 12 -134 -24 -14 -25 -13 -73 2 -88 9 -9 4 -9 -23 -2 -57 17 -250 50 -291
50 -21 0 -38 5 -38 10 0 11 39 29 61 28 45 -3 60 4 69 30 37 100 57 120 89 90
11 -10 13 -10 7 0 -5 9 7 12 51 12 82 1 142 17 172 46 23 23 60 30 53 10 -2
-5 3 -13 11 -18 9 -4 21 -24 27 -44 10 -30 16 -35 38 -32 21 2 28 9 30 32 2
16 -1 33 -7 39 -22 22 -11 44 31 63 107 48 130 136 53 206 -39 35 -45 58 -14
58 43 0 227 42 298 68 43 16 91 43 117 65 l44 39 0 74 c0 66 -2 74 -19 74 -28
0 -43 -25 -40 -64 4 -37 -19 -65 -53 -66 -9 0 -19 -6 -21 -12 -3 -8 -6 -7 -6
4 -1 9 4 20 10 24 8 4 10 26 6 60 -5 49 -3 57 26 93 18 22 45 45 61 52 33 14
56 61 56 113 0 45 -38 89 -98 117 -77 34 -239 68 -376 79 -147 11 -141 11
-147 6z m-26 -146 c47 -13 80 -42 71 -64 -2 -6 -17 -17 -32 -24 -15 -6 -43
-27 -62 -46 -43 -43 -90 -52 -191 -37 -80 13 -99 23 -99 54 0 24 27 57 47 57
7 0 13 5 13 10 0 6 6 10 13 10 6 0 46 13 87 30 41 16 82 28 90 26 8 -2 37 -9
63 -16z m342 -4 c72 -15 145 -51 145 -70 0 -38 -96 -78 -217 -91 -58 -6 -64
-5 -88 19 -43 43 -29 110 30 144 26 15 56 14 130 -2z m115 -272 c0 -8 -7 -14
-15 -14 -17 0 -18 2 -9 24 7 18 24 12 24 -10z m-770 -74 c0 -48 2 -52 36 -72
34 -20 35 -22 18 -35 -28 -20 -50 -16 -88 18 -47 41 -59 95 -26 121 12 10 31
18 41 18 16 0 19 -8 19 -50z m190 9 c74 -26 80 -29 80 -48 0 -26 -37 -51 -76
-51 -39 0 -52 15 -63 74 -10 53 -14 51 59 25z m555 -14 c0 -22 -5 -31 -20 -33
-27 -5 -61 -38 -75 -73 -13 -31 -41 -45 -63 -32 -7 4 -30 27 -51 50 -46 52
-43 78 12 92 86 23 119 29 157 27 37 -1 40 -3 40 -31z m-288 -129 c4 12 50 7
59 -7 3 -5 -3 -9 -13 -10 -10 0 -35 -2 -55 -5 -28 -3 -38 -1 -38 9 0 22 12 28
28 14 11 -8 16 -9 19 -1z m-732 -97 c4 -6 37 -9 81 -8 41 1 77 -1 81 -4 3 -4
19 -7 33 -7 15 0 43 -7 62 -15 21 -8 50 -12 70 -9 52 9 110 -12 161 -57 53
-46 79 -48 87 -5 7 41 44 46 64 8 11 -22 15 -76 7 -114 -2 -11 -131 -74 -166
-82 -16 -3 -52 -7 -80 -7 -27 -1 -69 -10 -92 -20 -43 -20 -70 -20 -348 -4
-122 6 -263 53 -305 102 -23 25 -28 39 -21 46 6 6 11 27 11 47 0 40 14 60 42
60 14 0 18 -8 18 -34 0 -48 21 -62 70 -47 22 6 40 15 40 19 -1 13 -35 49 -53
56 -25 8 -17 28 19 45 16 8 32 19 36 25 5 7 14 6 31 -3 19 -10 33 -10 78 2 71
19 67 19 74 6z m-964 -129 c9 -14 20 -46 23 -71 6 -37 3 -49 -14 -69 -22 -26
-26 -70 -8 -88 18 -18 -1 -15 -88 13 -43 14 -102 28 -133 31 -80 9 -93 18 -89
62 3 34 7 37 53 54 27 10 51 22 53 26 1 5 13 7 26 5 20 -4 27 2 41 31 17 36
19 37 68 34 40 -2 53 -8 68 -28z m-422 -16 c15 -19 21 -41 21 -78 0 -70 -15
-88 -73 -90 -25 -1 -51 -6 -57 -12 -9 -9 -19 -4 -40 15 -24 22 -29 34 -31 81
-3 89 -4 86 54 97 87 17 104 15 126 -13z m206 4 c-1 -17 -11 -24 -46 -32 -30
-8 -47 -19 -56 -36 -20 -40 -38 -31 -41 22 -3 52 -4 51 98 61 19 2 38 5 41 5
3 1 5 -8 4 -20z m387 -3 c15 -4 29 -13 32 -21 3 -8 11 -14 18 -13 7 2 23 0 35
-4 20 -7 22 -16 25 -95 5 -117 5 -115 -56 -108 -28 3 -68 2 -88 -3 -38 -9 -88
-4 -88 9 0 4 11 11 25 14 16 4 27 16 31 32 5 21 1 32 -25 56 -28 27 -32 35
-29 76 3 45 4 47 33 47 20 0 29 5 27 13 -2 9 4 12 15 8 10 -3 30 -8 45 -11z
m-798 -58 c-2 -73 -13 -86 -57 -68 -17 8 -52 16 -77 19 -25 2 -50 12 -57 21
-17 22 -16 34 1 28 8 -3 17 0 19 8 3 7 23 18 44 25 21 7 42 17 48 22 5 5 26 8
45 6 l35 -3 -1 -58z m-199 -66 c3 -11 19 -21 39 -25 18 -4 41 -15 51 -26 19
-21 14 -50 -10 -50 -8 0 -15 -4 -15 -8 0 -5 -12 -15 -26 -22 -20 -11 -25 -20
-22 -42 4 -25 2 -27 -16 -22 -37 11 -105 54 -115 73 -11 19 3 41 25 41 6 0 14
16 17 36 3 20 11 42 18 50 16 20 47 17 54 -5z m1155 -25 c0 -14 -4 -28 -10
-31 -6 -4 -10 7 -10 24 0 17 5 31 10 31 6 0 10 -11 10 -24z m190 -42 c0 -8 -4
-12 -10 -9 -5 3 -10 13 -10 21 0 8 5 12 10 9 6 -3 10 -13 10 -21z m369 -43
c27 -12 44 -15 56 -9 24 14 28 5 32 -66 l4 -64 -83 -7 c-46 -4 -90 -6 -98 -4
-16 3 -132 -9 -165 -17 -15 -4 -12 2 13 25 18 17 41 31 51 31 14 0 18 5 14 20
-4 14 0 20 12 20 9 0 29 9 45 20 21 15 26 25 22 45 -4 22 -1 25 27 25 18 0 49
-8 70 -19z m276 -19 c0 -7 -4 -12 -9 -11 -5 0 -12 -3 -15 -8 -3 -4 -30 -28
-58 -51 -57 -47 -86 -51 -91 -13 -5 31 33 62 66 54 15 -3 22 -1 22 9 0 8 5 19
11 25 14 14 74 11 74 -5z m-1135 -59 c47 -7 52 -10 35 -19 -31 -17 -151 -43
-250 -54 -167 -18 -461 -7 -488 19 -9 9 81 32 188 51 33 5 71 12 85 14 37 6
367 -2 430 -11z m185 -72 c3 -5 -4 -12 -15 -16 -11 -3 -20 -11 -20 -16 0 -5
-4 -9 -10 -9 -17 0 -11 38 8 43 28 8 31 7 37 -2z m-111 -35 c-3 -9 -11 -16
-18 -16 -12 0 -36 -126 -36 -187 0 -26 -3 -30 -20 -26 -11 3 -20 12 -20 19 0
19 -3 18 -57 -16 -52 -33 -102 -50 -148 -50 -17 0 -47 -8 -66 -18 -52 -27
-115 -28 -129 -2 -6 11 -20 20 -30 20 -11 0 -20 4 -20 9 0 4 -15 28 -34 51
-28 36 -32 46 -23 62 9 13 9 23 1 36 -11 16 -10 80 1 90 9 9 290 21 295 13 5
-8 37 -5 215 21 50 8 91 13 93 12 1 -1 0 -9 -4 -18z m-974 4 c0 -5 -4 -10 -10
-10 -5 0 -10 5 -10 10 0 6 5 10 10 10 6 0 10 -4 10 -10z m1287 -22 c-3 -7 -5
-2 -5 12 0 14 2 19 5 13 2 -7 2 -19 0 -25z m-1082 2 l50 -7 -40 -3 -40 -2 37
-12 c21 -6 43 -19 50 -29 12 -17 14 -17 28 3 16 22 13 32 46 -150 6 -34 6 -34
-10 -13 -9 12 -23 48 -31 80 l-14 58 5 -78 c7 -83 -2 -109 -35 -100 -11 3 -39
-6 -63 -20 -37 -22 -49 -24 -88 -17 -31 6 -52 17 -67 37 -13 15 -33 38 -44 49
-26 27 -37 105 -18 121 8 6 31 13 52 16 l37 5 0 -52 c0 -48 -2 -53 -22 -52
-50 2 -23 -74 35 -99 38 -16 51 -12 66 21 9 21 8 28 -13 49 -16 16 -25 39 -28
72 -3 26 -7 55 -9 63 -3 10 7 16 36 21 22 3 32 7 23 8 -32 2 -69 21 -63 31 7
11 48 12 120 0z m1644 6 c-3 -3 -44 -8 -91 -10 -92 -5 -202 -23 -230 -37 -10
-5 -28 -9 -40 -9 -22 0 -22 0 -3 14 11 7 36 16 55 19 19 3 45 9 57 13 25 10
261 19 252 10z m-775 -50 c23 -8 33 -16 25 -19 -10 -4 -9 -6 4 -6 9 -1 17 -5
17 -9 0 -13 -86 -72 -104 -72 -14 0 -20 -12 -17 -32 0 -5 -5 -8 -13 -8 -18 0
-12 57 10 107 8 17 14 36 14 42 0 14 16 14 64 -3z m386 -6 c0 -5 -7 -10 -16
-10 -8 0 -12 5 -9 10 3 6 10 10 16 10 5 0 9 -4 9 -10z m730 0 c0 -5 -2 -10 -4
-10 -3 0 -8 5 -11 10 -3 6 -1 10 4 10 6 0 11 -4 11 -10z m-1843 -32 c-3 -7 -5
-2 -5 12 0 14 2 19 5 13 2 -7 2 -19 0 -25z m1769 24 c6 -4 19 -22 29 -41 13
-26 14 -39 6 -55 -15 -31 -31 -97 -31 -131 l-1 -30 -19 24 c-11 13 -20 31 -20
40 0 9 -7 27 -16 39 -8 12 -12 22 -8 22 3 0 1 7 -6 15 -7 8 -21 15 -31 15 -10
0 -23 9 -29 20 -14 27 4 60 33 60 12 1 33 7 47 15 29 17 31 17 46 7z m133 -8
c18 -9 31 -18 29 -20 -7 -6 -78 19 -78 28 0 12 13 10 49 -8z m-2336 -39 c6
-27 5 -28 -5 -7 -6 12 -18 22 -26 22 -12 0 -12 3 -2 15 16 19 25 10 33 -30z
m1899 14 c18 -24 18 -30 7 -70 -13 -45 -26 -62 -42 -52 -4 3 0 11 10 18 23 17
11 29 -30 30 -23 0 -35 6 -44 25 l-13 25 0 -24 c0 -17 -4 -22 -16 -17 -9 3
-22 6 -30 6 -22 0 -17 34 9 57 42 40 120 41 149 2z m488 -37 c19 -9 40 -28 47
-42 26 -51 9 -155 -22 -130 -9 8 -15 6 -21 -7 -6 -13 -9 -4 -13 32 -5 37 -11
51 -23 53 -11 2 -18 -3 -18 -12 0 -25 -20 -19 -30 10 -13 34 -21 94 -14 105 8
14 56 9 94 -9z m-810 -31 c-1 -31 -24 -66 -39 -56 -6 3 -11 2 -11 -3 0 -6 -7
-12 -15 -16 -13 -4 -12 -1 2 22 l17 27 -33 -30 c-33 -30 -33 -30 -26 -5 4 14
13 30 21 36 8 6 14 15 14 19 0 5 7 16 16 26 22 25 54 13 54 -20z m199 -14 c28
-14 48 -67 26 -67 -8 0 -16 4 -20 9 -3 5 -19 12 -35 16 -34 7 -44 19 -36 40 7
18 33 19 65 2z m68 -43 c-9 -9 -28 6 -21 18 4 6 10 6 17 -1 6 -6 8 -13 4 -17z
m-387 -34 c0 -5 -4 -10 -10 -10 -5 0 -10 5 -10 10 0 6 5 10 10 10 6 0 10 -4
10 -10z m-30 -18 c0 -4 -16 -24 -34 -44 -19 -20 -43 -52 -52 -70 -16 -31 -17
-32 -25 -10 -9 24 -25 29 -32 10 -4 -10 -8 -9 -16 2 -15 22 -14 27 11 33 15 4
26 1 31 -9 12 -22 35 0 30 29 -3 18 5 26 39 43 24 12 44 22 46 23 1 0 2 -3 2
-7z m675 -126 c86 -13 176 -42 145 -46 -38 -6 -59 -10 -109 -24 -101 -29 -220
-39 -400 -33 -169 5 -301 22 -301 38 0 12 132 50 224 64 110 17 331 18 441 1z
m415 -55 c16 -30 13 -81 -5 -81 -8 0 -15 8 -15 18 0 9 -7 26 -15 36 -8 11 -15
26 -15 33 0 20 38 15 50 -6z m-187 -45 c3 -7 -1 -23 -9 -35 -13 -18 -13 -21
-1 -21 8 0 18 -7 21 -16 3 -8 10 -13 15 -9 17 10 61 -44 61 -75 0 -17 -4 -30
-9 -30 -5 0 -11 -12 -13 -27 -3 -24 -34 -48 -114 -89 -18 -9 -110 40 -105 57
3 8 5 43 6 79 1 36 4 75 8 86 5 15 3 23 -8 28 -34 13 -15 35 43 46 31 7 62 14
67 15 22 7 33 4 38 -9z m-958 -31 c82 -10 92 -15 121 -56 49 -71 38 -130 -26
-127 -19 0 -54 -2 -77 -6 -36 -7 -43 -5 -53 14 -6 12 -14 19 -17 16 -4 -3 -12
-1 -20 5 -18 15 -17 68 2 75 19 8 20 54 1 54 -17 0 -38 24 -29 33 3 4 15 5 27
2 12 -2 44 -7 71 -10z m777 -17 c-14 -14 -45 -20 -36 -7 3 5 -1 9 -10 9 -8 0
-16 -4 -18 -8 -1 -5 -15 -12 -30 -16 -22 -5 -26 -3 -22 8 7 18 25 23 84 25 34
1 41 -2 32 -11z m-498 -64 c22 -9 20 -41 -3 -47 -32 -8 -58 34 -28 46 6 3 13
6 14 6 1 1 8 -2 17 -5z m100 -49 c8 -8 18 -25 21 -38 11 -36 56 -77 84 -77 32
0 63 26 79 63 8 20 19 27 38 27 33 0 81 -28 87 -51 3 -10 26 -32 52 -48 41
-26 45 -32 29 -38 -39 -15 -233 -1 -328 23 -124 32 -156 62 -130 122 14 35 42
42 68 17z"/>
<path d="M1460 3085 c0 -2 7 -22 16 -44 17 -44 51 -68 40 -29 -3 13 -6 28 -6
34 0 7 -11 19 -25 28 -14 9 -25 14 -25 11z"/>
<path d="M1710 3079 c0 -14 20 -50 37 -67 22 -23 48 -10 46 22 -1 16 -6 32
-10 36 -14 13 -73 20 -73 9z"/>
<path d="M1560 2685 c0 -8 4 -15 9 -15 5 0 11 7 15 15 3 9 0 15 -9 15 -8 0
-15 -7 -15 -15z"/>
<path d="M4214 3299 c-34 -4 -81 -13 -105 -19 -40 -11 -42 -13 -21 -21 14 -5
43 -4 75 3 66 15 381 15 463 1 33 -6 78 -19 99 -27 l39 -17 -35 -17 c-45 -23
-50 -58 -13 -102 22 -25 25 -36 17 -49 -12 -17 -75 -21 -109 -6 -17 8 -205 42
-261 48 -11 1 -19 5 -17 9 2 4 0 9 -5 12 -5 3 -11 -4 -15 -16 -5 -22 -6 -22
-20 -3 -9 11 -16 15 -16 9 0 -6 -11 -24 -25 -40 -14 -16 -25 -34 -25 -40 0
-18 -56 -74 -74 -74 -9 0 -36 -9 -61 -21 l-45 -21 -45 22 c-42 20 -47 21 -58
6 -10 -14 -16 -15 -39 -4 -38 18 -50 78 -12 64 7 -3 20 5 29 17 16 22 21 102
7 111 -13 8 -34 -10 -48 -41 -10 -24 -12 -25 -13 -7 -1 25 45 91 82 119 15 11
27 25 27 32 0 15 -5 16 -28 4 -9 -5 -37 -15 -62 -21 -142 -38 -200 -170 -107
-245 47 -38 47 -37 117 -71 73 -35 194 -67 320 -84 118 -16 427 -17 529 -1
112 17 197 58 101 49 -34 -3 -39 -1 -34 14 3 9 -4 35 -16 57 -27 54 -27 126 0
141 31 16 35 54 11 95 -27 46 -27 47 7 39 54 -13 144 -68 168 -103 27 -41 32
-102 9 -121 -19 -16 -19 -37 1 -48 11 -6 0 -13 -45 -27 -64 -19 -66 -21 -52
-44 14 -22 97 9 93 35 -2 14 0 15 6 6 24 -36 128 38 142 102 11 52 -2 82 -58
134 -92 83 -229 134 -422 157 -132 16 -354 18 -456 4z m454 -387 c128 -29 137
-36 71 -53 -38 -10 -115 -14 -264 -13 -190 1 -218 3 -295 25 -47 13 -85 28
-85 34 0 5 17 12 38 16 20 3 41 9 45 13 4 5 95 6 202 3 150 -3 217 -9 288 -25z
m382 18 c0 -5 -5 -10 -11 -10 -5 0 -7 5 -4 10 3 6 8 10 11 10 2 0 4 -4 4 -10z"/>
<path d="M2830 2890 c-8 -5 -11 -12 -7 -16 4 -4 13 -2 19 4 15 15 7 24 -12 12z"/>
<path d="M4905 2820 c-6 -9 21 -40 35 -40 5 0 8 9 7 19 -1 20 -33 36 -42 21z"/>
<path d="M3737 2784 c-14 -14 -7 -80 11 -96 9 -9 35 -35 56 -57 106 -111 374
-169 725 -158 182 5 300 24 401 64 105 42 182 103 146 116 -21 8 -78 -24 -72
-40 3 -8 1 -11 -4 -8 -6 3 -10 1 -10 -4 0 -6 -11 -11 -24 -11 -29 0 -51 47
-47 101 2 30 -2 38 -18 44 -33 10 -57 -2 -85 -45 -23 -35 -29 -39 -56 -34 -19
4 -30 2 -30 -5 0 -6 -12 -11 -27 -11 -26 0 -26 -1 -7 -15 18 -14 18 -14 -4
-15 -12 0 -25 7 -28 15 -5 12 -10 13 -20 4 -8 -6 -21 -9 -29 -5 -20 7 -2 47
30 67 18 10 22 18 15 29 -7 10 -10 11 -10 3 0 -7 -6 -13 -12 -13 -7 0 -45 -31
-85 -68 -62 -59 -69 -70 -55 -80 15 -10 15 -11 -3 -13 -45 -3 -73 4 -122 34
-29 17 -53 35 -53 39 0 17 -29 7 -35 -13 -4 -13 -12 -18 -22 -15 -8 3 -21 6
-28 6 -8 0 -36 23 -62 50 -48 50 -86 63 -121 41 -8 -4 -37 -1 -69 7 -54 15
-55 15 -72 -6 -12 -16 -20 -19 -31 -12 -8 5 -25 10 -37 10 -12 0 -28 9 -36 20
-8 11 -17 17 -20 14 -4 -4 -10 1 -13 10 -5 14 -9 15 -15 4 -6 -9 -8 -6 -6 9 0
12 5 19 10 16 5 -3 8 0 5 7 -5 16 -22 23 -31 14z m597 -207 c13 -14 44 -28 81
-36 53 -12 57 -15 36 -23 -13 -4 -62 -8 -108 -7 -74 1 -88 4 -114 26 -16 14
-29 29 -29 33 0 20 37 15 64 -9 16 -14 26 -20 22 -14 -7 12 9 53 21 53 3 0 15
-10 27 -23z"/>
<path d="M3770 1814 c-253 -28 -439 -97 -548 -202 -67 -65 -90 -109 -99 -194
-5 -48 -3 -61 11 -71 13 -10 18 -30 19 -88 2 -73 -4 -97 -40 -159 -38 -67 -45
-92 -32 -122 21 -50 133 -144 233 -192 90 -44 225 -86 277 -86 14 0 46 -7 69
-15 34 -12 96 -15 294 -15 279 0 333 6 481 50 180 55 300 146 324 247 12 51 3
103 -19 103 -12 0 -14 57 -2 64 5 3 16 40 26 83 9 43 21 97 26 121 27 115 -6
205 -102 282 -161 130 -379 191 -698 195 -102 2 -201 1 -220 -1z m251 -54 c24
-13 24 -38 0 -69 -14 -18 -32 -26 -67 -30 -46 -6 -49 -8 -52 -36 -5 -60 -12
-75 -33 -75 -54 0 -79 49 -41 81 33 28 44 32 53 18 6 -9 9 2 9 31 0 62 23 90
73 90 21 0 47 -5 58 -10z m-405 -243 c8 3 20 -2 27 -11 7 -9 21 -16 32 -15 38
4 55 -1 55 -16 0 -7 7 -18 15 -22 8 -5 17 -22 21 -39 5 -26 2 -32 -33 -51 -21
-12 -56 -25 -78 -28 -22 -4 -44 -11 -50 -15 -11 -9 -55 -14 -91 -12 -42 3 -38
52 7 103 28 30 49 65 49 78 0 5 5 22 12 38 11 26 12 27 15 6 3 -15 9 -20 19
-16z m630 -20 c15 -32 26 -42 45 -42 15 0 24 -6 24 -15 0 -12 -11 -14 -49 -13
-66 4 -90 25 -81 73 4 19 9 38 11 42 9 15 30 -4 50 -45z m-776 -111 c8 -21 6
-27 -10 -36 -26 -14 -70 4 -70 28 0 11 10 31 21 46 21 26 22 27 35 8 8 -11 18
-32 24 -46z m1083 37 c29 -33 26 -81 -8 -118 -24 -25 -28 -26 -58 -14 -47 18
-57 29 -57 59 0 43 10 61 44 76 42 18 60 17 79 -3z m-492 -113 c165 -29 246
-57 224 -78 -25 -23 -205 -54 -340 -59 -199 -7 -370 29 -358 76 9 33 66 52
190 61 63 5 118 11 121 14 9 10 45 7 163 -14z m-599 -315 c16 -14 37 -25 47
-25 25 0 65 -45 57 -65 -4 -11 -13 -14 -33 -9 -16 3 -43 9 -61 12 -17 4 -46
20 -62 35 -64 61 -15 109 52 52z m368 -65 c0 -5 -4 -10 -10 -10 -5 0 -10 5
-10 10 0 6 5 10 10 10 6 0 10 -4 10 -10z"/>
</g>
</svg>
